<?xml version="1.0" encoding="UTF-8"?>
<svg width="798" height="148" viewBox="0 0 798 148" xmlns="http://www.w3.org/2000/svg" role="img" aria-label="Rocket over contributions">
  <defs>
    <filter id="shadow" x="-50%" y="-50%" width="200%" height="200%">
      <feDropShadow dx="0" dy="1" stdDeviation="1.2" flood-color="#000" flood-opacity="0.25"/>
    </filter>
  </defs>
  <rect width="100%" height="100%" fill="#0B1220"/>
  <g filter="url(#shadow)">
    <text x="399" y="22" text-anchor="middle" font-family="Inter, ui-sans-serif, system-ui" font-size="14" fill="#374151">03 Sept 2025 • Rocket over my contributions</text>
    <rect x="3" y="33" rx="3" ry="3" width="12" height="12" fill="#e5e7eb"/>
<rect x="3" y="48" rx="3" ry="3" width="12" height="12" fill="#e5e7eb"/>
<rect x="3" y="63" rx="3" ry="3" width="12" height="12" fill="#e5e7eb"/>
<rect x="3" y="78" rx="3" ry="3" width="12" height="12" fill="#e5e7eb"/>
<rect x="3" y="93" rx="3" ry="3" width="12" height="12" fill="#e5e7eb"/>
<rect x="3" y="108" rx="3" ry="3" width="12" height="12" fill="#e5e7eb"/>
<rect x="3" y="123" rx="3" ry="3" width="12" height="12" fill="#e5e7eb"/>
<rect x="18" y="33" rx="3" ry="3" width="12" height="12" fill="#e5e7eb"/>
<rect x="18" y="48" rx="3" ry="3" width="12" height="12" fill="#e5e7eb"/>
<rect x="18" y="63" rx="3" ry="3" width="12" height="12" fill="#e5e7eb"/>
<rect x="18" y="78" rx="3" ry="3" width="12" height="12" fill="#e5e7eb"/>
<rect x="18" y="93" rx="3" ry="3" width="12" height="12" fill="#e5e7eb"/>
<rect x="18" y="108" rx="3" ry="3" width="12" height="12" fill="#e5e7eb"/>
<rect x="18" y="123" rx="3" ry="3" width="12" height="12" fill="#e5e7eb"/>
<rect x="33" y="33" rx="3" ry="3" width="12" height="12" fill="#e5e7eb"/>
<rect x="33" y="48" rx="3" ry="3" width="12" height="12" fill="#e5e7eb"/>
<rect x="33" y="63" rx="3" ry="3" width="12" height="12" fill="#e5e7eb"/>
<rect x="33" y="78" rx="3" ry="3" width="12" height="12" fill="#e5e7eb"/>
<rect x="33" y="93" rx="3" ry="3" width="12" height="12" fill="#e5e7eb"/>
<rect x="33" y="108" rx="3" ry="3" width="12" height="12" fill="#e5e7eb"/>
<rect x="33" y="123" rx="3" ry="3" width="12" height="12" fill="#e5e7eb"/>
<rect x="48" y="33" rx="3" ry="3" width="12" height="12" fill="#e5e7eb"/>
<rect x="48" y="48" rx="3" ry="3" width="12" height="12" fill="#e5e7eb"/>
<rect x="48" y="63" rx="3" ry="3" width="12" height="12" fill="#e5e7eb"/>
<rect x="48" y="78" rx="3" ry="3" width="12" height="12" fill="#e5e7eb"/>
<rect x="48" y="93" rx="3" ry="3" width="12" height="12" fill="#e5e7eb"/>
<rect x="48" y="108" rx="3" ry="3" width="12" height="12" fill="#9be9a8"/>
<rect x="48" y="123" rx="3" ry="3" width="12" height="12" fill="#9be9a8"/>
<rect x="63" y="33" rx="3" ry="3" width="12" height="12" fill="#40c463"/>
<rect x="63" y="48" rx="3" ry="3" width="12" height="12" fill="#9be9a8"/>
<rect x="63" y="63" rx="3" ry="3" width="12" height="12" fill="#e5e7eb"/>
<rect x="63" y="78" rx="3" ry="3" width="12" height="12" fill="#e5e7eb"/>
<rect x="63" y="93" rx="3" ry="3" width="12" height="12" fill="#e5e7eb"/>
<rect x="63" y="108" rx="3" ry="3" width="12" height="12" fill="#9be9a8"/>
<rect x="63" y="123" rx="3" ry="3" width="12" height="12" fill="#9be9a8"/>
<rect x="78" y="33" rx="3" ry="3" width="12" height="12" fill="#e5e7eb"/>
<rect x="78" y="48" rx="3" ry="3" width="12" height="12" fill="#e5e7eb"/>
<rect x="78" y="63" rx="3" ry="3" width="12" height="12" fill="#e5e7eb"/>
<rect x="78" y="78" rx="3" ry="3" width="12" height="12" fill="#e5e7eb"/>
<rect x="78" y="93" rx="3" ry="3" width="12" height="12" fill="#e5e7eb"/>
<rect x="78" y="108" rx="3" ry="3" width="12" height="12" fill="#e5e7eb"/>
<rect x="78" y="123" rx="3" ry="3" width="12" height="12" fill="#e5e7eb"/>
<rect x="93" y="33" rx="3" ry="3" width="12" height="12" fill="#e5e7eb"/>
<rect x="93" y="48" rx="3" ry="3" width="12" height="12" fill="#e5e7eb"/>
<rect x="93" y="63" rx="3" ry="3" width="12" height="12" fill="#e5e7eb"/>
<rect x="93" y="78" rx="3" ry="3" width="12" height="12" fill="#e5e7eb"/>
<rect x="93" y="93" rx="3" ry="3" width="12" height="12" fill="#e5e7eb"/>
<rect x="93" y="108" rx="3" ry="3" width="12" height="12" fill="#e5e7eb"/>
<rect x="93" y="123" rx="3" ry="3" width="12" height="12" fill="#e5e7eb"/>
<rect x="108" y="33" rx="3" ry="3" width="12" height="12" fill="#e5e7eb"/>
<rect x="108" y="48" rx="3" ry="3" width="12" height="12" fill="#e5e7eb"/>
<rect x="108" y="63" rx="3" ry="3" width="12" height="12" fill="#e5e7eb"/>
<rect x="108" y="78" rx="3" ry="3" width="12" height="12" fill="#e5e7eb"/>
<rect x="108" y="93" rx="3" ry="3" width="12" height="12" fill="#e5e7eb"/>
<rect x="108" y="108" rx="3" ry="3" width="12" height="12" fill="#e5e7eb"/>
<rect x="108" y="123" rx="3" ry="3" width="12" height="12" fill="#e5e7eb"/>
<rect x="123" y="33" rx="3" ry="3" width="12" height="12" fill="#e5e7eb"/>
<rect x="123" y="48" rx="3" ry="3" width="12" height="12" fill="#e5e7eb"/>
<rect x="123" y="63" rx="3" ry="3" width="12" height="12" fill="#e5e7eb"/>
<rect x="123" y="78" rx="3" ry="3" width="12" height="12" fill="#e5e7eb"/>
<rect x="123" y="93" rx="3" ry="3" width="12" height="12" fill="#e5e7eb"/>
<rect x="123" y="108" rx="3" ry="3" width="12" height="12" fill="#e5e7eb"/>
<rect x="123" y="123" rx="3" ry="3" width="12" height="12" fill="#e5e7eb"/>
<rect x="138" y="33" rx="3" ry="3" width="12" height="12" fill="#e5e7eb"/>
<rect x="138" y="48" rx="3" ry="3" width="12" height="12" fill="#e5e7eb"/>
<rect x="138" y="63" rx="3" ry="3" width="12" height="12" fill="#e5e7eb"/>
<rect x="138" y="78" rx="3" ry="3" width="12" height="12" fill="#e5e7eb"/>
<rect x="138" y="93" rx="3" ry="3" width="12" height="12" fill="#e5e7eb"/>
<rect x="138" y="108" rx="3" ry="3" width="12" height="12" fill="#e5e7eb"/>
<rect x="138" y="123" rx="3" ry="3" width="12" height="12" fill="#e5e7eb"/>
<rect x="153" y="33" rx="3" ry="3" width="12" height="12" fill="#e5e7eb"/>
<rect x="153" y="48" rx="3" ry="3" width="12" height="12" fill="#e5e7eb"/>
<rect x="153" y="63" rx="3" ry="3" width="12" height="12" fill="#e5e7eb"/>
<rect x="153" y="78" rx="3" ry="3" width="12" height="12" fill="#e5e7eb"/>
<rect x="153" y="93" rx="3" ry="3" width="12" height="12" fill="#e5e7eb"/>
<rect x="153" y="108" rx="3" ry="3" width="12" height="12" fill="#e5e7eb"/>
<rect x="153" y="123" rx="3" ry="3" width="12" height="12" fill="#e5e7eb"/>
<rect x="168" y="33" rx="3" ry="3" width="12" height="12" fill="#e5e7eb"/>
<rect x="168" y="48" rx="3" ry="3" width="12" height="12" fill="#e5e7eb"/>
<rect x="168" y="63" rx="3" ry="3" width="12" height="12" fill="#e5e7eb"/>
<rect x="168" y="78" rx="3" ry="3" width="12" height="12" fill="#e5e7eb"/>
<rect x="168" y="93" rx="3" ry="3" width="12" height="12" fill="#e5e7eb"/>
<rect x="168" y="108" rx="3" ry="3" width="12" height="12" fill="#e5e7eb"/>
<rect x="168" y="123" rx="3" ry="3" width="12" height="12" fill="#e5e7eb"/>
<rect x="183" y="33" rx="3" ry="3" width="12" height="12" fill="#e5e7eb"/>
<rect x="183" y="48" rx="3" ry="3" width="12" height="12" fill="#e5e7eb"/>
<rect x="183" y="63" rx="3" ry="3" width="12" height="12" fill="#e5e7eb"/>
<rect x="183" y="78" rx="3" ry="3" width="12" height="12" fill="#e5e7eb"/>
<rect x="183" y="93" rx="3" ry="3" width="12" height="12" fill="#e5e7eb"/>
<rect x="183" y="108" rx="3" ry="3" width="12" height="12" fill="#e5e7eb"/>
<rect x="183" y="123" rx="3" ry="3" width="12" height="12" fill="#e5e7eb"/>
<rect x="198" y="33" rx="3" ry="3" width="12" height="12" fill="#e5e7eb"/>
<rect x="198" y="48" rx="3" ry="3" width="12" height="12" fill="#e5e7eb"/>
<rect x="198" y="63" rx="3" ry="3" width="12" height="12" fill="#e5e7eb"/>
<rect x="198" y="78" rx="3" ry="3" width="12" height="12" fill="#e5e7eb"/>
<rect x="198" y="93" rx="3" ry="3" width="12" height="12" fill="#e5e7eb"/>
<rect x="198" y="108" rx="3" ry="3" width="12" height="12" fill="#e5e7eb"/>
<rect x="198" y="123" rx="3" ry="3" width="12" height="12" fill="#e5e7eb"/>
<rect x="213" y="33" rx="3" ry="3" width="12" height="12" fill="#e5e7eb"/>
<rect x="213" y="48" rx="3" ry="3" width="12" height="12" fill="#e5e7eb"/>
<rect x="213" y="63" rx="3" ry="3" width="12" height="12" fill="#e5e7eb"/>
<rect x="213" y="78" rx="3" ry="3" width="12" height="12" fill="#e5e7eb"/>
<rect x="213" y="93" rx="3" ry="3" width="12" height="12" fill="#e5e7eb"/>
<rect x="213" y="108" rx="3" ry="3" width="12" height="12" fill="#e5e7eb"/>
<rect x="213" y="123" rx="3" ry="3" width="12" height="12" fill="#e5e7eb"/>
<rect x="228" y="33" rx="3" ry="3" width="12" height="12" fill="#9be9a8"/>
<rect x="228" y="48" rx="3" ry="3" width="12" height="12" fill="#e5e7eb"/>
<rect x="228" y="63" rx="3" ry="3" width="12" height="12" fill="#9be9a8"/>
<rect x="228" y="78" rx="3" ry="3" width="12" height="12" fill="#e5e7eb"/>
<rect x="228" y="93" rx="3" ry="3" width="12" height="12" fill="#e5e7eb"/>
<rect x="228" y="108" rx="3" ry="3" width="12" height="12" fill="#e5e7eb"/>
<rect x="228" y="123" rx="3" ry="3" width="12" height="12" fill="#e5e7eb"/>
<rect x="243" y="33" rx="3" ry="3" width="12" height="12" fill="#e5e7eb"/>
<rect x="243" y="48" rx="3" ry="3" width="12" height="12" fill="#e5e7eb"/>
<rect x="243" y="63" rx="3" ry="3" width="12" height="12" fill="#e5e7eb"/>
<rect x="243" y="78" rx="3" ry="3" width="12" height="12" fill="#e5e7eb"/>
<rect x="243" y="93" rx="3" ry="3" width="12" height="12" fill="#e5e7eb"/>
<rect x="243" y="108" rx="3" ry="3" width="12" height="12" fill="#e5e7eb"/>
<rect x="243" y="123" rx="3" ry="3" width="12" height="12" fill="#e5e7eb"/>
<rect x="258" y="33" rx="3" ry="3" width="12" height="12" fill="#e5e7eb"/>
<rect x="258" y="48" rx="3" ry="3" width="12" height="12" fill="#e5e7eb"/>
<rect x="258" y="63" rx="3" ry="3" width="12" height="12" fill="#e5e7eb"/>
<rect x="258" y="78" rx="3" ry="3" width="12" height="12" fill="#e5e7eb"/>
<rect x="258" y="93" rx="3" ry="3" width="12" height="12" fill="#e5e7eb"/>
<rect x="258" y="108" rx="3" ry="3" width="12" height="12" fill="#e5e7eb"/>
<rect x="258" y="123" rx="3" ry="3" width="12" height="12" fill="#e5e7eb"/>
<rect x="273" y="33" rx="3" ry="3" width="12" height="12" fill="#e5e7eb"/>
<rect x="273" y="48" rx="3" ry="3" width="12" height="12" fill="#e5e7eb"/>
<rect x="273" y="63" rx="3" ry="3" width="12" height="12" fill="#e5e7eb"/>
<rect x="273" y="78" rx="3" ry="3" width="12" height="12" fill="#e5e7eb"/>
<rect x="273" y="93" rx="3" ry="3" width="12" height="12" fill="#e5e7eb"/>
<rect x="273" y="108" rx="3" ry="3" width="12" height="12" fill="#e5e7eb"/>
<rect x="273" y="123" rx="3" ry="3" width="12" height="12" fill="#e5e7eb"/>
<rect x="288" y="33" rx="3" ry="3" width="12" height="12" fill="#e5e7eb"/>
<rect x="288" y="48" rx="3" ry="3" width="12" height="12" fill="#e5e7eb"/>
<rect x="288" y="63" rx="3" ry="3" width="12" height="12" fill="#e5e7eb"/>
<rect x="288" y="78" rx="3" ry="3" width="12" height="12" fill="#e5e7eb"/>
<rect x="288" y="93" rx="3" ry="3" width="12" height="12" fill="#e5e7eb"/>
<rect x="288" y="108" rx="3" ry="3" width="12" height="12" fill="#e5e7eb"/>
<rect x="288" y="123" rx="3" ry="3" width="12" height="12" fill="#e5e7eb"/>
<rect x="303" y="33" rx="3" ry="3" width="12" height="12" fill="#e5e7eb"/>
<rect x="303" y="48" rx="3" ry="3" width="12" height="12" fill="#e5e7eb"/>
<rect x="303" y="63" rx="3" ry="3" width="12" height="12" fill="#e5e7eb"/>
<rect x="303" y="78" rx="3" ry="3" width="12" height="12" fill="#e5e7eb"/>
<rect x="303" y="93" rx="3" ry="3" width="12" height="12" fill="#e5e7eb"/>
<rect x="303" y="108" rx="3" ry="3" width="12" height="12" fill="#e5e7eb"/>
<rect x="303" y="123" rx="3" ry="3" width="12" height="12" fill="#e5e7eb"/>
<rect x="318" y="33" rx="3" ry="3" width="12" height="12" fill="#e5e7eb"/>
<rect x="318" y="48" rx="3" ry="3" width="12" height="12" fill="#e5e7eb"/>
<rect x="318" y="63" rx="3" ry="3" width="12" height="12" fill="#e5e7eb"/>
<rect x="318" y="78" rx="3" ry="3" width="12" height="12" fill="#e5e7eb"/>
<rect x="318" y="93" rx="3" ry="3" width="12" height="12" fill="#e5e7eb"/>
<rect x="318" y="108" rx="3" ry="3" width="12" height="12" fill="#e5e7eb"/>
<rect x="318" y="123" rx="3" ry="3" width="12" height="12" fill="#e5e7eb"/>
<rect x="333" y="33" rx="3" ry="3" width="12" height="12" fill="#e5e7eb"/>
<rect x="333" y="48" rx="3" ry="3" width="12" height="12" fill="#e5e7eb"/>
<rect x="333" y="63" rx="3" ry="3" width="12" height="12" fill="#e5e7eb"/>
<rect x="333" y="78" rx="3" ry="3" width="12" height="12" fill="#e5e7eb"/>
<rect x="333" y="93" rx="3" ry="3" width="12" height="12" fill="#e5e7eb"/>
<rect x="333" y="108" rx="3" ry="3" width="12" height="12" fill="#e5e7eb"/>
<rect x="333" y="123" rx="3" ry="3" width="12" height="12" fill="#e5e7eb"/>
<rect x="348" y="33" rx="3" ry="3" width="12" height="12" fill="#e5e7eb"/>
<rect x="348" y="48" rx="3" ry="3" width="12" height="12" fill="#e5e7eb"/>
<rect x="348" y="63" rx="3" ry="3" width="12" height="12" fill="#e5e7eb"/>
<rect x="348" y="78" rx="3" ry="3" width="12" height="12" fill="#e5e7eb"/>
<rect x="348" y="93" rx="3" ry="3" width="12" height="12" fill="#e5e7eb"/>
<rect x="348" y="108" rx="3" ry="3" width="12" height="12" fill="#e5e7eb"/>
<rect x="348" y="123" rx="3" ry="3" width="12" height="12" fill="#e5e7eb"/>
<rect x="363" y="33" rx="3" ry="3" width="12" height="12" fill="#e5e7eb"/>
<rect x="363" y="48" rx="3" ry="3" width="12" height="12" fill="#e5e7eb"/>
<rect x="363" y="63" rx="3" ry="3" width="12" height="12" fill="#e5e7eb"/>
<rect x="363" y="78" rx="3" ry="3" width="12" height="12" fill="#e5e7eb"/>
<rect x="363" y="93" rx="3" ry="3" width="12" height="12" fill="#e5e7eb"/>
<rect x="363" y="108" rx="3" ry="3" width="12" height="12" fill="#e5e7eb"/>
<rect x="363" y="123" rx="3" ry="3" width="12" height="12" fill="#40c463"/>
<rect x="378" y="33" rx="3" ry="3" width="12" height="12" fill="#40c463"/>
<rect x="378" y="48" rx="3" ry="3" width="12" height="12" fill="#e5e7eb"/>
<rect x="378" y="63" rx="3" ry="3" width="12" height="12" fill="#e5e7eb"/>
<rect x="378" y="78" rx="3" ry="3" width="12" height="12" fill="#e5e7eb"/>
<rect x="378" y="93" rx="3" ry="3" width="12" height="12" fill="#e5e7eb"/>
<rect x="378" y="108" rx="3" ry="3" width="12" height="12" fill="#e5e7eb"/>
<rect x="378" y="123" rx="3" ry="3" width="12" height="12" fill="#e5e7eb"/>
<rect x="393" y="33" rx="3" ry="3" width="12" height="12" fill="#e5e7eb"/>
<rect x="393" y="48" rx="3" ry="3" width="12" height="12" fill="#e5e7eb"/>
<rect x="393" y="63" rx="3" ry="3" width="12" height="12" fill="#e5e7eb"/>
<rect x="393" y="78" rx="3" ry="3" width="12" height="12" fill="#e5e7eb"/>
<rect x="393" y="93" rx="3" ry="3" width="12" height="12" fill="#e5e7eb"/>
<rect x="393" y="108" rx="3" ry="3" width="12" height="12" fill="#e5e7eb"/>
<rect x="393" y="123" rx="3" ry="3" width="12" height="12" fill="#e5e7eb"/>
<rect x="408" y="33" rx="3" ry="3" width="12" height="12" fill="#e5e7eb"/>
<rect x="408" y="48" rx="3" ry="3" width="12" height="12" fill="#e5e7eb"/>
<rect x="408" y="63" rx="3" ry="3" width="12" height="12" fill="#e5e7eb"/>
<rect x="408" y="78" rx="3" ry="3" width="12" height="12" fill="#e5e7eb"/>
<rect x="408" y="93" rx="3" ry="3" width="12" height="12" fill="#e5e7eb"/>
<rect x="408" y="108" rx="3" ry="3" width="12" height="12" fill="#e5e7eb"/>
<rect x="408" y="123" rx="3" ry="3" width="12" height="12" fill="#e5e7eb"/>
<rect x="423" y="33" rx="3" ry="3" width="12" height="12" fill="#e5e7eb"/>
<rect x="423" y="48" rx="3" ry="3" width="12" height="12" fill="#e5e7eb"/>
<rect x="423" y="63" rx="3" ry="3" width="12" height="12" fill="#e5e7eb"/>
<rect x="423" y="78" rx="3" ry="3" width="12" height="12" fill="#e5e7eb"/>
<rect x="423" y="93" rx="3" ry="3" width="12" height="12" fill="#e5e7eb"/>
<rect x="423" y="108" rx="3" ry="3" width="12" height="12" fill="#e5e7eb"/>
<rect x="423" y="123" rx="3" ry="3" width="12" height="12" fill="#e5e7eb"/>
<rect x="438" y="33" rx="3" ry="3" width="12" height="12" fill="#e5e7eb"/>
<rect x="438" y="48" rx="3" ry="3" width="12" height="12" fill="#e5e7eb"/>
<rect x="438" y="63" rx="3" ry="3" width="12" height="12" fill="#e5e7eb"/>
<rect x="438" y="78" rx="3" ry="3" width="12" height="12" fill="#e5e7eb"/>
<rect x="438" y="93" rx="3" ry="3" width="12" height="12" fill="#e5e7eb"/>
<rect x="438" y="108" rx="3" ry="3" width="12" height="12" fill="#e5e7eb"/>
<rect x="438" y="123" rx="3" ry="3" width="12" height="12" fill="#e5e7eb"/>
<rect x="453" y="33" rx="3" ry="3" width="12" height="12" fill="#e5e7eb"/>
<rect x="453" y="48" rx="3" ry="3" width="12" height="12" fill="#e5e7eb"/>
<rect x="453" y="63" rx="3" ry="3" width="12" height="12" fill="#e5e7eb"/>
<rect x="453" y="78" rx="3" ry="3" width="12" height="12" fill="#e5e7eb"/>
<rect x="453" y="93" rx="3" ry="3" width="12" height="12" fill="#e5e7eb"/>
<rect x="453" y="108" rx="3" ry="3" width="12" height="12" fill="#e5e7eb"/>
<rect x="453" y="123" rx="3" ry="3" width="12" height="12" fill="#e5e7eb"/>
<rect x="468" y="33" rx="3" ry="3" width="12" height="12" fill="#e5e7eb"/>
<rect x="468" y="48" rx="3" ry="3" width="12" height="12" fill="#e5e7eb"/>
<rect x="468" y="63" rx="3" ry="3" width="12" height="12" fill="#e5e7eb"/>
<rect x="468" y="78" rx="3" ry="3" width="12" height="12" fill="#e5e7eb"/>
<rect x="468" y="93" rx="3" ry="3" width="12" height="12" fill="#9be9a8"/>
<rect x="468" y="108" rx="3" ry="3" width="12" height="12" fill="#e5e7eb"/>
<rect x="468" y="123" rx="3" ry="3" width="12" height="12" fill="#e5e7eb"/>
<rect x="483" y="33" rx="3" ry="3" width="12" height="12" fill="#e5e7eb"/>
<rect x="483" y="48" rx="3" ry="3" width="12" height="12" fill="#e5e7eb"/>
<rect x="483" y="63" rx="3" ry="3" width="12" height="12" fill="#e5e7eb"/>
<rect x="483" y="78" rx="3" ry="3" width="12" height="12" fill="#e5e7eb"/>
<rect x="483" y="93" rx="3" ry="3" width="12" height="12" fill="#e5e7eb"/>
<rect x="483" y="108" rx="3" ry="3" width="12" height="12" fill="#9be9a8"/>
<rect x="483" y="123" rx="3" ry="3" width="12" height="12" fill="#e5e7eb"/>
<rect x="498" y="33" rx="3" ry="3" width="12" height="12" fill="#9be9a8"/>
<rect x="498" y="48" rx="3" ry="3" width="12" height="12" fill="#9be9a8"/>
<rect x="498" y="63" rx="3" ry="3" width="12" height="12" fill="#e5e7eb"/>
<rect x="498" y="78" rx="3" ry="3" width="12" height="12" fill="#e5e7eb"/>
<rect x="498" y="93" rx="3" ry="3" width="12" height="12" fill="#e5e7eb"/>
<rect x="498" y="108" rx="3" ry="3" width="12" height="12" fill="#e5e7eb"/>
<rect x="498" y="123" rx="3" ry="3" width="12" height="12" fill="#e5e7eb"/>
<rect x="513" y="33" rx="3" ry="3" width="12" height="12" fill="#e5e7eb"/>
<rect x="513" y="48" rx="3" ry="3" width="12" height="12" fill="#e5e7eb"/>
<rect x="513" y="63" rx="3" ry="3" width="12" height="12" fill="#e5e7eb"/>
<rect x="513" y="78" rx="3" ry="3" width="12" height="12" fill="#e5e7eb"/>
<rect x="513" y="93" rx="3" ry="3" width="12" height="12" fill="#e5e7eb"/>
<rect x="513" y="108" rx="3" ry="3" width="12" height="12" fill="#e5e7eb"/>
<rect x="513" y="123" rx="3" ry="3" width="12" height="12" fill="#e5e7eb"/>
<rect x="528" y="33" rx="3" ry="3" width="12" height="12" fill="#e5e7eb"/>
<rect x="528" y="48" rx="3" ry="3" width="12" height="12" fill="#e5e7eb"/>
<rect x="528" y="63" rx="3" ry="3" width="12" height="12" fill="#e5e7eb"/>
<rect x="528" y="78" rx="3" ry="3" width="12" height="12" fill="#e5e7eb"/>
<rect x="528" y="93" rx="3" ry="3" width="12" height="12" fill="#e5e7eb"/>
<rect x="528" y="108" rx="3" ry="3" width="12" height="12" fill="#e5e7eb"/>
<rect x="528" y="123" rx="3" ry="3" width="12" height="12" fill="#e5e7eb"/>
<rect x="543" y="33" rx="3" ry="3" width="12" height="12" fill="#e5e7eb"/>
<rect x="543" y="48" rx="3" ry="3" width="12" height="12" fill="#e5e7eb"/>
<rect x="543" y="63" rx="3" ry="3" width="12" height="12" fill="#e5e7eb"/>
<rect x="543" y="78" rx="3" ry="3" width="12" height="12" fill="#e5e7eb"/>
<rect x="543" y="93" rx="3" ry="3" width="12" height="12" fill="#e5e7eb"/>
<rect x="543" y="108" rx="3" ry="3" width="12" height="12" fill="#9be9a8"/>
<rect x="543" y="123" rx="3" ry="3" width="12" height="12" fill="#e5e7eb"/>
<rect x="558" y="33" rx="3" ry="3" width="12" height="12" fill="#9be9a8"/>
<rect x="558" y="48" rx="3" ry="3" width="12" height="12" fill="#e5e7eb"/>
<rect x="558" y="63" rx="3" ry="3" width="12" height="12" fill="#e5e7eb"/>
<rect x="558" y="78" rx="3" ry="3" width="12" height="12" fill="#9be9a8"/>
<rect x="558" y="93" rx="3" ry="3" width="12" height="12" fill="#9be9a8"/>
<rect x="558" y="108" rx="3" ry="3" width="12" height="12" fill="#9be9a8"/>
<rect x="558" y="123" rx="3" ry="3" width="12" height="12" fill="#e5e7eb"/>
<rect x="573" y="33" rx="3" ry="3" width="12" height="12" fill="#9be9a8"/>
<rect x="573" y="48" rx="3" ry="3" width="12" height="12" fill="#9be9a8"/>
<rect x="573" y="63" rx="3" ry="3" width="12" height="12" fill="#9be9a8"/>
<rect x="573" y="78" rx="3" ry="3" width="12" height="12" fill="#9be9a8"/>
<rect x="573" y="93" rx="3" ry="3" width="12" height="12" fill="#9be9a8"/>
<rect x="573" y="108" rx="3" ry="3" width="12" height="12" fill="#9be9a8"/>
<rect x="573" y="123" rx="3" ry="3" width="12" height="12" fill="#e5e7eb"/>
<rect x="588" y="33" rx="3" ry="3" width="12" height="12" fill="#9be9a8"/>
<rect x="588" y="48" rx="3" ry="3" width="12" height="12" fill="#9be9a8"/>
<rect x="588" y="63" rx="3" ry="3" width="12" height="12" fill="#9be9a8"/>
<rect x="588" y="78" rx="3" ry="3" width="12" height="12" fill="#9be9a8"/>
<rect x="588" y="93" rx="3" ry="3" width="12" height="12" fill="#e5e7eb"/>
<rect x="588" y="108" rx="3" ry="3" width="12" height="12" fill="#e5e7eb"/>
<rect x="588" y="123" rx="3" ry="3" width="12" height="12" fill="#9be9a8"/>
<rect x="603" y="33" rx="3" ry="3" width="12" height="12" fill="#216e39"/>
<rect x="603" y="48" rx="3" ry="3" width="12" height="12" fill="#9be9a8"/>
<rect x="603" y="63" rx="3" ry="3" width="12" height="12" fill="#e5e7eb"/>
<rect x="603" y="78" rx="3" ry="3" width="12" height="12" fill="#e5e7eb"/>
<rect x="603" y="93" rx="3" ry="3" width="12" height="12" fill="#e5e7eb"/>
<rect x="603" y="108" rx="3" ry="3" width="12" height="12" fill="#e5e7eb"/>
<rect x="603" y="123" rx="3" ry="3" width="12" height="12" fill="#e5e7eb"/>
<rect x="618" y="33" rx="3" ry="3" width="12" height="12" fill="#e5e7eb"/>
<rect x="618" y="48" rx="3" ry="3" width="12" height="12" fill="#9be9a8"/>
<rect x="618" y="63" rx="3" ry="3" width="12" height="12" fill="#e5e7eb"/>
<rect x="618" y="78" rx="3" ry="3" width="12" height="12" fill="#9be9a8"/>
<rect x="618" y="93" rx="3" ry="3" width="12" height="12" fill="#9be9a8"/>
<rect x="618" y="108" rx="3" ry="3" width="12" height="12" fill="#e5e7eb"/>
<rect x="618" y="123" rx="3" ry="3" width="12" height="12" fill="#40c463"/>
<rect x="633" y="33" rx="3" ry="3" width="12" height="12" fill="#9be9a8"/>
<rect x="633" y="48" rx="3" ry="3" width="12" height="12" fill="#9be9a8"/>
<rect x="633" y="63" rx="3" ry="3" width="12" height="12" fill="#30a14e"/>
<rect x="633" y="78" rx="3" ry="3" width="12" height="12" fill="#9be9a8"/>
<rect x="633" y="93" rx="3" ry="3" width="12" height="12" fill="#9be9a8"/>
<rect x="633" y="108" rx="3" ry="3" width="12" height="12" fill="#e5e7eb"/>
<rect x="633" y="123" rx="3" ry="3" width="12" height="12" fill="#e5e7eb"/>
<rect x="648" y="33" rx="3" ry="3" width="12" height="12" fill="#e5e7eb"/>
<rect x="648" y="48" rx="3" ry="3" width="12" height="12" fill="#e5e7eb"/>
<rect x="648" y="63" rx="3" ry="3" width="12" height="12" fill="#e5e7eb"/>
<rect x="648" y="78" rx="3" ry="3" width="12" height="12" fill="#e5e7eb"/>
<rect x="648" y="93" rx="3" ry="3" width="12" height="12" fill="#e5e7eb"/>
<rect x="648" y="108" rx="3" ry="3" width="12" height="12" fill="#9be9a8"/>
<rect x="648" y="123" rx="3" ry="3" width="12" height="12" fill="#e5e7eb"/>
<rect x="663" y="33" rx="3" ry="3" width="12" height="12" fill="#9be9a8"/>
<rect x="663" y="48" rx="3" ry="3" width="12" height="12" fill="#9be9a8"/>
<rect x="663" y="63" rx="3" ry="3" width="12" height="12" fill="#e5e7eb"/>
<rect x="663" y="78" rx="3" ry="3" width="12" height="12" fill="#9be9a8"/>
<rect x="663" y="93" rx="3" ry="3" width="12" height="12" fill="#e5e7eb"/>
<rect x="663" y="108" rx="3" ry="3" width="12" height="12" fill="#40c463"/>
<rect x="663" y="123" rx="3" ry="3" width="12" height="12" fill="#e5e7eb"/>
<rect x="678" y="33" rx="3" ry="3" width="12" height="12" fill="#9be9a8"/>
<rect x="678" y="48" rx="3" ry="3" width="12" height="12" fill="#9be9a8"/>
<rect x="678" y="63" rx="3" ry="3" width="12" height="12" fill="#e5e7eb"/>
<rect x="678" y="78" rx="3" ry="3" width="12" height="12" fill="#e5e7eb"/>
<rect x="678" y="93" rx="3" ry="3" width="12" height="12" fill="#e5e7eb"/>
<rect x="678" y="108" rx="3" ry="3" width="12" height="12" fill="#e5e7eb"/>
<rect x="678" y="123" rx="3" ry="3" width="12" height="12" fill="#e5e7eb"/>
<rect x="693" y="33" rx="3" ry="3" width="12" height="12" fill="#e5e7eb"/>
<rect x="693" y="48" rx="3" ry="3" width="12" height="12" fill="#30a14e"/>
<rect x="693" y="63" rx="3" ry="3" width="12" height="12" fill="#40c463"/>
<rect x="693" y="78" rx="3" ry="3" width="12" height="12" fill="#9be9a8"/>
<rect x="693" y="93" rx="3" ry="3" width="12" height="12" fill="#9be9a8"/>
<rect x="693" y="108" rx="3" ry="3" width="12" height="12" fill="#9be9a8"/>
<rect x="693" y="123" rx="3" ry="3" width="12" height="12" fill="#40c463"/>
<rect x="708" y="33" rx="3" ry="3" width="12" height="12" fill="#216e39"/>
<rect x="708" y="48" rx="3" ry="3" width="12" height="12" fill="#40c463"/>
<rect x="708" y="63" rx="3" ry="3" width="12" height="12" fill="#e5e7eb"/>
<rect x="708" y="78" rx="3" ry="3" width="12" height="12" fill="#9be9a8"/>
<rect x="708" y="93" rx="3" ry="3" width="12" height="12" fill="#e5e7eb"/>
<rect x="708" y="108" rx="3" ry="3" width="12" height="12" fill="#9be9a8"/>
<rect x="708" y="123" rx="3" ry="3" width="12" height="12" fill="#9be9a8"/>
<rect x="723" y="33" rx="3" ry="3" width="12" height="12" fill="#40c463"/>
<rect x="723" y="48" rx="3" ry="3" width="12" height="12" fill="#40c463"/>
<rect x="723" y="63" rx="3" ry="3" width="12" height="12" fill="#e5e7eb"/>
<rect x="723" y="78" rx="3" ry="3" width="12" height="12" fill="#e5e7eb"/>
<rect x="723" y="93" rx="3" ry="3" width="12" height="12" fill="#9be9a8"/>
<rect x="723" y="108" rx="3" ry="3" width="12" height="12" fill="#e5e7eb"/>
<rect x="723" y="123" rx="3" ry="3" width="12" height="12" fill="#40c463"/>
<rect x="738" y="33" rx="3" ry="3" width="12" height="12" fill="#30a14e"/>
<rect x="738" y="48" rx="3" ry="3" width="12" height="12" fill="#e5e7eb"/>
<rect x="738" y="63" rx="3" ry="3" width="12" height="12" fill="#e5e7eb"/>
<rect x="738" y="78" rx="3" ry="3" width="12" height="12" fill="#9be9a8"/>
<rect x="738" y="93" rx="3" ry="3" width="12" height="12" fill="#9be9a8"/>
<rect x="738" y="108" rx="3" ry="3" width="12" height="12" fill="#e5e7eb"/>
<rect x="738" y="123" rx="3" ry="3" width="12" height="12" fill="#e5e7eb"/>
<rect x="753" y="33" rx="3" ry="3" width="12" height="12" fill="#e5e7eb"/>
<rect x="753" y="48" rx="3" ry="3" width="12" height="12" fill="#9be9a8"/>
<rect x="753" y="63" rx="3" ry="3" width="12" height="12" fill="#40c463"/>
<rect x="753" y="78" rx="3" ry="3" width="12" height="12" fill="#e5e7eb"/>
<rect x="753" y="93" rx="3" ry="3" width="12" height="12" fill="#9be9a8"/>
<rect x="753" y="108" rx="3" ry="3" width="12" height="12" fill="#40c463"/>
<rect x="753" y="123" rx="3" ry="3" width="12" height="12" fill="#9be9a8"/>
<rect x="768" y="33" rx="3" ry="3" width="12" height="12" fill="#e5e7eb"/>
<rect x="768" y="48" rx="3" ry="3" width="12" height="12" fill="#9be9a8"/>
<rect x="768" y="63" rx="3" ry="3" width="12" height="12" fill="#e5e7eb"/>
<rect x="768" y="78" rx="3" ry="3" width="12" height="12" fill="#e5e7eb"/>
<rect x="768" y="93" rx="3" ry="3" width="12" height="12" fill="#e5e7eb"/>
<rect x="768" y="108" rx="3" ry="3" width="12" height="12" fill="#e5e7eb"/>
<rect x="768" y="123" rx="3" ry="3" width="12" height="12" fill="#e5e7eb"/>
<rect x="783" y="33" rx="3" ry="3" width="12" height="12" fill="#e5e7eb"/>
<rect x="783" y="48" rx="3" ry="3" width="12" height="12" fill="#e5e7eb"/>
<rect x="783" y="63" rx="3" ry="3" width="12" height="12" fill="#9be9a8"/>
<rect x="783" y="78" rx="3" ry="3" width="12" height="12" fill="#40c463"/>

    
    <path id="fly" d="M 10 74 C 199.5 34, 598.5 114, 788 74" fill="none" stroke="none"/>
    <g>
      
    <g id="rocket" transform="scale(0.8)">
      <g>
        <ellipse cx="0" cy="0" rx="10" ry="6" fill="#9CA3AF"/>
        <polygon points="10,0 20,4 20,-4" fill="#F87171"/>
        <polygon points="-8,0 -16,6 -8,4" fill="#60A5FA"/>
        <polygon points="-8,0 -16,-6 -8,-4" fill="#60A5FA"/>
        <circle cx="-2" cy="0" r="2.2" fill="#111827"/>
        <circle cx="-2" cy="0" r="1.2" fill="#93C5FD"/>
      </g>
      <g id="flame">
        <polygon points="-18,0 -26,3 -26,-3" fill="#F59E0B">
          <animate attributeName="opacity" values="1;0.4;1" dur="0.5s" repeatCount="indefinite" />
        </polygon>
      </g>
    </g>
  
      <animateMotion dur="12s" repeatCount="indefinite" rotate="auto">
        <mpath href="#fly" />
      </animateMotion>
    </g>
  
  </g>
</svg>