
<svg width="800" height="200" xmlns="http://www.w3.org/2000/svg">
  <rect width="100%" height="100%" fill="black" />
  <circle cx="55.45374431244792" cy="84.18121365234174" r="0.936091993056927" fill="white" /><circle cx="568.694742150271" cy="29.00912414464343" r="1.6672021168596662" fill="white" /><circle cx="350.27042106406157" cy="161.418258558892" r="1.6120451115477148" fill="white" /><circle cx="74.06619969960798" cy="28.155983838969554" r="1.9374059635971101" fill="white" /><circle cx="605.012232347395" cy="101.2000967990482" r="0.5627494379753053" fill="white" /><circle cx="311.0971363988579" cy="103.34102935102875" r="1.452480722174669" fill="white" /><circle cx="251.5759908729077" cy="104.37909286305226" r="1.7827316037898557" fill="white" /><circle cx="604.3790452517114" cy="15.672565950908934" r="1.1149673594256653" fill="white" /><circle cx="615.4832571972204" cy="111.13107523380914" r="1.8019665328125853" fill="white" /><circle cx="371.2775374813706" cy="21.358721299566774" r="0.5783756456629923" fill="white" /><circle cx="560.734047498806" cy="168.3171132104298" r="1.2348319469857951" fill="white" /><circle cx="185.15334768015242" cy="82.27205715093704" r="1.1588235138954923" fill="white" /><circle cx="217.5267564676581" cy="137.57156189415562" r="1.8747893193586838" fill="white" /><circle cx="533.7672175724815" cy="177.83886527663313" r="0.7062370924065139" fill="white" /><circle cx="231.2507191919437" cy="83.245706907265" r="1.6429239312499875" fill="white" /><circle cx="261.68870711582457" cy="157.7925526812305" r="0.5423280504707585" fill="white" /><circle cx="130.33293763379064" cy="48.11961828756011" r="0.6325529832875241" fill="white" /><circle cx="677.8661682770476" cy="15.223142228810094" r="1.8091157821332442" fill="white" /><circle cx="530.9516332921554" cy="106.03415828184724" r="0.5391263055744038" fill="white" /><circle cx="270.952495793043" cy="196.61313702345166" r="1.5688840938590594" fill="white" /><circle cx="177.24299037642623" cy="171.96656044315418" r="0.9117433374684162" fill="white" /><circle cx="151.4758743869466" cy="7.756914045527052" r="1.9175185862861839" fill="white" /><circle cx="361.3920732006431" cy="84.00971682327305" r="1.006097669560656" fill="white" /><circle cx="377.1705885974212" cy="157.1438289984523" r="0.7034529879535888" fill="white" /><circle cx="354.4488530374684" cy="78.63956014488384" r="1.6477563684934755" fill="white" /><circle cx="360.0952939857278" cy="190.25557668631868" r="0.5271706907915101" fill="white" /><circle cx="595.2518736457622" cy="23.113004053410524" r="0.5612533681126181" fill="white" /><circle cx="294.3272865593455" cy="63.135862773583455" r="1.014896931910143" fill="white" /><circle cx="61.95727172874452" cy="65.62133057062263" r="1.7765096905393263" fill="white" /><circle cx="582.3457898524927" cy="71.87126208909373" r="0.5868293527496217" fill="white" /><circle cx="371.6930523024841" cy="119.49469752889898" r="0.7149736509015538" fill="white" /><circle cx="570.955089829888" cy="154.2551122107085" r="1.804640712284675" fill="white" /><circle cx="198.39335853266888" cy="166.72990813331637" r="1.5494400884835535" fill="white" /><circle cx="548.114183948214" cy="157.74511895973916" r="1.541885645615269" fill="white" /><circle cx="142.31026981063107" cy="125.39947599581657" r="1.8347547231960202" fill="white" /><circle cx="399.8431432027431" cy="158.91257145822527" r="1.8117976939383786" fill="white" /><circle cx="200.61171827145827" cy="45.06696821064335" r="1.705220705953177" fill="white" /><circle cx="717.9905004317119" cy="91.77399548124461" r="0.6684744743227329" fill="white" /><circle cx="605.8599145507978" cy="179.6474748124703" r="1.9143434465751246" fill="white" /><circle cx="587.650266521433" cy="186.7530735583573" r="0.7725386304198023" fill="white" /><circle cx="3.6344292129850686" cy="199.5701984363692" r="0.9323153585940852" fill="white" /><circle cx="502.45791317728197" cy="31.918710642668778" r="1.6743197891432384" fill="white" /><circle cx="644.598120062103" cy="94.19533002592999" r="1.1128899192359913" fill="white" /><circle cx="401.23911407257947" cy="53.58566459420424" r="0.5033078373333093" fill="white" /><circle cx="61.90122059873868" cy="102.44811926833913" r="1.4071175527536304" fill="white" /><circle cx="455.32622645695807" cy="143.34277474492282" r="1.3076527745656867" fill="white" /><circle cx="103.26977955364444" cy="113.6476808829591" r="1.2586480125598902" fill="white" /><circle cx="755.3102380404194" cy="72.79887626803205" r="1.2702803946485117" fill="white" /><circle cx="266.1763710754263" cy="128.48807444594365" r="0.9618986990945121" fill="white" /><circle cx="311.15632400002244" cy="112.5734505582893" r="0.5941548149062287" fill="white" /><circle cx="392.7374831007185" cy="177.53089801473135" r="1.8508072142260024" fill="white" /><circle cx="560.3539194515769" cy="164.04439249440702" r="1.1797726312624786" fill="white" /><circle cx="720.2020896817842" cy="13.888824330232774" r="1.6703801490780017" fill="white" /><circle cx="707.1744159598325" cy="141.89685735249768" r="1.7674277236080393" fill="white" /><circle cx="639.4605283839026" cy="112.00708408729434" r="0.8985433634217261" fill="white" /><circle cx="264.3922447252278" cy="156.46912686948843" r="1.7337151716819892" fill="white" /><circle cx="452.7589358972671" cy="159.12724824198327" r="1.4094950112900413" fill="white" /><circle cx="119.53825609249442" cy="86.6532999622684" r="1.4569093445158516" fill="white" /><circle cx="332.5867324477018" cy="169.64419038009484" r="1.458649408652919" fill="white" /><circle cx="446.1379961964246" cy="190.8724987001178" r="1.3892892468768807" fill="white" /><circle cx="390.13510915004713" cy="165.70780864318812" r="0.7156173372664977" fill="white" /><circle cx="69.19974347689947" cy="196.14772293465163" r="1.0431059646807297" fill="white" /><circle cx="458.1358154233916" cy="80.2413620636108" r="0.5639839163741781" fill="white" /><circle cx="104.22595032143872" cy="199.37116694660958" r="1.2062307570052948" fill="white" /><circle cx="3.8362495365804605" cy="197.0953926967374" r="0.9087001183281832" fill="white" /><circle cx="341.1913710274343" cy="129.53783395965624" r="1.3315129166267465" fill="white" /><circle cx="528.9178376657709" cy="53.693374998518365" r="1.3423705191044268" fill="white" /><circle cx="545.2997583998997" cy="28.90369941104174" r="0.6041352641299943" fill="white" /><circle cx="564.6576410309343" cy="134.61518373646112" r="1.0263517358111658" fill="white" /><circle cx="447.59115972672544" cy="32.090497015816545" r="1.2748154639856926" fill="white" /><circle cx="408.54694231403136" cy="182.82246408175328" r="0.8579814436284815" fill="white" /><circle cx="315.57433153577426" cy="147.21710435828598" r="1.0551703317590273" fill="white" /><circle cx="392.60326602618835" cy="154.70962273935015" r="0.919781622482044" fill="white" /><circle cx="302.613723822169" cy="133.45772154931765" r="0.5569234069172968" fill="white" /><circle cx="490.55979237683295" cy="11.115803892440512" r="1.4022593576724653" fill="white" /><circle cx="323.8016070268998" cy="157.80954878972108" r="0.7016877318055588" fill="white" /><circle cx="344.90142084388094" cy="43.93700249817836" r="1.1927391516610717" fill="white" /><circle cx="556.3183769623963" cy="110.84233018303719" r="1.3292318636401586" fill="white" /><circle cx="261.9216277118497" cy="145.82429872351125" r="0.6161487661168262" fill="white" /><circle cx="371.07819311170385" cy="44.46867383354678" r="1.3217068480399905" fill="white" />

  <!-- Planet -->
  <circle cx="700" cy="100" r="40" fill="url(#planetGradient)" />
  <defs>
    <radialGradient id="planetGradient">
      <stop offset="0%" stop-color="orange" />
      <stop offset="100%" stop-color="red" />
    </radialGradient>
  </defs>

  <!-- Rocket -->
  <g>
    <rect x="50" y="80" width="30" height="40" fill="silver" stroke="white" />
    <polygon points="50,80 65,50 80,80" fill="white" />
    <polygon points="50,120 40,135 50,135" fill="red" />
    <polygon points="80,120 90,135 80,135" fill="red" />

    <!-- Fire -->
    <polygon points="65,120 60,150 70,150" fill="orange">
      <animateTransform attributeName="transform" type="scale" values="1;1.3;1" dur="0.3s" repeatCount="indefinite" />
    </polygon>
  </g>

  <!-- Animation moving rocket -->
  <g>
    <rect x="50" y="80" width="30" height="40" fill="none" />
    <animateTransform attributeName="transform" type="translate" from="0 0" to="600 0" dur="10s" repeatCount="indefinite" />
  </g>
</svg>